# xmcd
#
# Track frame offsets: 
#        150
#        23112
#        41485
#        57267
#        74580
#        91042
#        112477
#        131250
#        151940
#        174455
#        193087
#        210275
#        228305
#        250907
#        270605
#        291285
#        311297
#        323750
#
# Disc length: 4606 seconds
#
# Revision: 2
# Processed by: cddbd v1.5.2PL0 Copyright (c) Steve Scherf et al.
# Submitted via: ExactAudioCopy v0.99pb4
#
DISCID=f911fc12
DTITLE=Various Artist - I Love R&B Vol.3
DYEAR=2000
DGENRE=R&B
TTITLE0=Bozy 2 Men - A song For Mama
TTITLE1=Sisqo - Thong Song
TTITLE2=Mya - How You Gonna Tell Me
TTITLE3=Dwayne Wiggins - What's Really Going On (Strange Fruit)
TTITLE4=Calvin Richardson and K-Ci - I'll Take Her (Dream Team-Urbanwolv
TTITLE4=es Remix 1)
TTITLE5=Black Eyed Peas - What It Is
TTITLE6=Erykah Badu - Sometimes
TTITLE7=Youth Edition - Your Love Lifted Me
TTITLE8=America - Wait Feat. Wanya Morris
TTITLE9=Jazzyfatnasteez - Let It Go
TTITLE10=Honeyz - Summertime
TTITLE11=Shades - Serenade
TTITLE12=Chante Moore - Blooming Flower
TTITLE13=Brian McKnight - Back At One
TTITLE14=Sonique - Drama Feat. Calvin Richardson
TTITLE15=Horace Brown - Taste Your Love (Hip Hop Remix)
TTITLE16=702 - Where My Girls At
TTITLE17=Guy - Teddy's Jam 3
EXTD=
EXTT0=
EXTT1=
EXTT2=
EXTT3=
EXTT4=
EXTT5=
EXTT6=
EXTT7=
EXTT8=
EXTT9=
EXTT10=
EXTT11=
EXTT12=
EXTT13=
EXTT14=
EXTT15=
EXTT16=
EXTT17=
PLAYORDER=
